<svg viewBox="-278 -162 950 300"><g class="home__face"><path d="M271 124c0-11.34-1.37-22.35-3.91-32.9a132.7 132.7 0 0 0-29.56-40 139.29 139.29 0 0 0-76.77-19.64c-77.27 2.81-137.62 67.74-134.8 145 .4 11.3 2.16 22.24 5.08 32.68a132.69 132.69 0 0 0 23.94 32.42A139.3 139.3 0 0 0 131 264c77.32 0 140-62.68 140-140zm-73.5-24a16 16 0 1 1 0 32 16 16 0 0 1 0-32zm-97.92 5c11 0 21 5.24 26.74 14.36l-13.49 8.43c-2.8-4.45-8.17-7.16-13.17-7.16v-.02c-6 0-10.44 2.64-13.25 7.09l-13.55-8.34C78.61 110.24 88.6 105 99.58 105zm-39.07 93.3c-2.28 0-4.59-.24-6.87-.76l3.54-15.6a15.45 15.45 0 0 0 14.36-4.32 15.45 15.45 0 0 0 4.31-14.37l15.6-3.53c1.91 8.41.23 17.08-4.5 24.19a76.72 76.72 0 0 0 69.86 30.23 76.75 76.75 0 0 0 55.07-34.3l13.44 8.68c-14.8 22.88-39.72 38.4-66.68 41.51-3.46.4-6.92.6-10.36.6a93.02 93.02 0 0 1-73.23-35.94 31.15 31.15 0 0 1-14.54 3.62z" class="home__face-color1"/><path d="M267.09 91.1a140.22 140.22 0 0 1 3.9 32.9c0 77.32-62.67 140-140 140a139.3 139.3 0 0 1-76.02-22.44A131.58 131.58 0 0 0 148 280c72.78 0 132-59.22 132-132 0-20.36-4.64-39.66-12.91-56.9z" class="home__face-color2"/><path d="M160.76 31.46a139.3 139.3 0 0 1 76.77 19.64A131.5 131.5 0 0 0 148 16C75.2 16 16 75.21 16 148c0 22.05 5.44 42.85 15.04 61.14a140.22 140.22 0 0 1-5.08-32.68c-2.82-77.26 57.53-142.19 134.8-145z" class="home__face-color3"/><path d="M148 0C66.4 0 0 66.4 0 148s66.4 148 148 148 148-66.4 148-148S229.6 0 148 0zm0 280c-36.26 0-69.15-14.7-93.03-38.44a132.71 132.71 0 0 1-23.93-32.42A131.18 131.18 0 0 1 16 148C16 75.2 75.21 16 148 16a131.5 131.5 0 0 1 89.53 35.1 132.7 132.7 0 0 1 29.56 40 131.2 131.2 0 0 1 12.9 56.9c0 72.78-59.2 132-132 132z"/><circle cx="197.5" cy="116" r="16"/><path d="M99.58 120.58c5.47 0 10.4 2.66 13.21 7.1l13.53-8.32c-5.75-9.12-15.74-14.36-26.74-14.36-10.99 0-20.99 5.24-26.74 14.36l13.53 8.43c2.8-4.45 7.75-7.2 13.21-7.2zm48.7 110.05c3.44 0 6.9-.2 10.36-.6 26.96-3.1 51.89-18.63 66.68-41.52l-13.44-8.68a76.76 76.76 0 0 1-55.07 34.3 76.73 76.73 0 0 1-69.86-30.22 31.14 31.14 0 0 0 4.5-24.2l-15.6 3.54a15.45 15.45 0 0 1-4.31 14.37 15.45 15.45 0 0 1-14.36 4.31l-3.54 15.6a31 31 0 0 0 21.41-2.84 93.02 93.02 0 0 0 73.23 35.94z"/></g></svg>